<svg xmlns="http://www.w3.org/2000/svg" viewBox="0 0 800 600" preserveAspectRatio="xMidYMid slice">
  <rect width="800" height="600" fill="#d8c4a0"/>
  <g opacity="0.3">
    <rect x="0" y="0" width="800" height="600" fill="url(#wood2)"/>
  </g>
  <defs>
    <pattern id="wood2" x="0" y="0" width="40" height="40" patternUnits="userSpaceOnUse">
      <rect width="40" height="40" fill="#a08060"/>
      <line x1="0" y1="20" x2="40" y2="20" stroke="#7a5a3e" stroke-width="0.5"/>
    </pattern>
  </defs>
  <g>
    <ellipse cx="400" cy="450" rx="280" ry="40" fill="#3d2510" opacity="0.2"/>
    <ellipse cx="400" cy="380" rx="250" ry="120" fill="#a06832"/>
    <ellipse cx="400" cy="370" rx="240" ry="115" fill="#c97e3e"/>
    <ellipse cx="400" cy="360" rx="220" ry="100" fill="#d49856"/>
    <ellipse cx="380" cy="340" rx="180" ry="70" fill="#e0a86b"/>
    <path d="M 200 380 Q 400 250 600 380" stroke="#5a3a1f" stroke-width="4" fill="none" opacity="0.7"/>
    <path d="M 230 360 Q 400 240 570 360" stroke="#5a3a1f" stroke-width="3" fill="none" opacity="0.6"/>
    <path d="M 260 340 Q 400 230 540 340" stroke="#5a3a1f" stroke-width="2" fill="none" opacity="0.5"/>
    <ellipse cx="280" cy="340" rx="3" ry="2" fill="#fffaf0"/>
    <ellipse cx="320" cy="320" rx="4" ry="2" fill="#fffaf0"/>
    <ellipse cx="380" cy="310" rx="3" ry="2" fill="#fffaf0"/>
    <ellipse cx="440" cy="320" rx="3" ry="2" fill="#fffaf0"/>
    <ellipse cx="500" cy="335" rx="2" ry="1.5" fill="#fffaf0"/>
    <ellipse cx="350" cy="350" rx="2" ry="1.5" fill="#fffaf0"/>
    <ellipse cx="420" cy="345" rx="3" ry="2" fill="#fffaf0"/>
    <circle cx="280" cy="380" r="4" fill="#3d2510" opacity="0.4"/>
    <circle cx="340" cy="375" r="3" fill="#3d2510" opacity="0.4"/>
    <circle cx="420" cy="380" r="5" fill="#3d2510" opacity="0.4"/>
    <circle cx="500" cy="390" r="3" fill="#3d2510" opacity="0.4"/>
  </g>
  <g opacity="0.6">
    <circle cx="100" cy="500" r="2" fill="#fffaf0"/>
    <circle cx="700" cy="480" r="2.5" fill="#fffaf0"/>
    <circle cx="150" cy="520" r="1.5" fill="#fffaf0"/>
    <circle cx="650" cy="510" r="2" fill="#fffaf0"/>
    <circle cx="120" cy="100" r="2" fill="#fffaf0"/>
    <circle cx="680" cy="120" r="1.5" fill="#fffaf0"/>
  </g>
</svg>
